<svg viewBox="0 0 50 50" xml:space="preserve" xmlns="http://www.w3.org/2000/svg"><path fill="none" d="M0 0h50v50H0z"></path><path fill="none" d="M0 0h50v50H0z"></path><path d="M4.955 39.75a6 6 0 1 0 10.923 2.041" fill="none" stroke="#ffaa33" stroke-linecap="round" stroke-linejoin="round" stroke-miterlimit="10" stroke-width="2" class="stroke-000000"></path><path d="M7.477 41.375A3.001 3.001 0 1 0 13 43c0-.207-.02-.409-.062-.605M36 43a6 6 0 0 0 12 0 5.975 5.975 0 0 0-1.467-3.93" fill="none" stroke="#ffaa33" stroke-linecap="round" stroke-linejoin="round" stroke-miterlimit="10" stroke-width="2" class="stroke-000000"></path><path d="M39.783 40.391A37.726 37.726 0 0 0 42 43M11.444 41.324A28.008 28.008 0 0 1 10 43" fill="none" stroke="#ffaa33" stroke-linecap="round" stroke-linejoin="round" stroke-miterlimit="10" stroke-width="2" class="stroke-000000"></path><path d="M34 44c1.659 0 .833-1.843 5.983-3.961 5.705-2.346 9.017.304 9.017-2.318 0-1.785-2.879-4.679-8.583-4.679C35.892 33.042 32 36.574 32 41c0 2.74 1.19 3 2 3zM3.24 28.6S1 31.774 1 36s12.072 6 22.143 6c3.417 0 6.304-.307 8.69-.839" fill="none" stroke="#ffaa33" stroke-linecap="round" stroke-linejoin="round" stroke-miterlimit="10" stroke-width="2" class="stroke-000000"></path><path d="M30.137 16.194c-1.782.772-3.89 1.688-4.137 1.806-1.641.788-.539 2.359 1 2 1.276-.297 3-2 3-2 2 5 5.351 19-6 19-3.777 0-7.159.562-5-7 0 0-.274-1.268-1.333-1.611M40.65 32.474A6.173 6.173 0 0 0 40 31c-1.396-2.28-4.97-6.745-6.644-12.658M37.51 15.825c0 1.412.127 2.556-2.345 2.556-2.474 0-4.477-1.145-4.477-2.556 0-1.408 2.003-2.553 4.477-2.553 2.472-.001 2.345 1.145 2.345 2.553z" fill="none" stroke="#ffaa33" stroke-linecap="round" stroke-linejoin="round" stroke-miterlimit="10" stroke-width="2" class="stroke-000000"></path><path d="M1 27.373c0 1.021 3.958 1.636 8.912 1.636 4.955 0 9.088-.614 9.088-1.636h0C19 26.354 18.206 25 17.224 25H2.776C1.794 25 1 26.354 1 27.373h0z" fill="none" stroke="#ffaa33" stroke-linecap="round" stroke-linejoin="round" stroke-miterlimit="10" stroke-width="2.013" class="stroke-000000"></path><circle cx="42" cy="43" fill="none" r="3" stroke="#ffaa33" stroke-linecap="round" stroke-linejoin="round" stroke-miterlimit="10" stroke-width="2" class="stroke-000000"></circle></svg>